<mxfile host="drawio-plugin" modified="2021-06-07T03:12:58.643Z" agent="5.0 (Macintosh; Intel Mac OS X 10_15_7) AppleWebKit/537.36 (KHTML, like Gecko) Chrome/87.0.4280.141 Safari/537.36" etag="qHSpLCPp-z6rdv8pI9fO" version="14.6.6" type="embed"><diagram id="3aAmGiYLDZFEQ71OWLDQ" name="第 1 页"><mxGraphModel dx="936" dy="783" grid="1" gridSize="10" guides="1" tooltips="1" connect="1" arrows="1" fold="1" page="1" pageScale="1" pageWidth="827" pageHeight="1169" background="none" math="0" shadow="0"><root><mxCell id="0"/><mxCell id="1" parent="0"/><mxCell id="uiA_Pju4g9e8UXNmcgrw-2" value="&lt;font style=&quot;font-size: 18px&quot;&gt;&lt;font style=&quot;font-size: 18px&quot;&gt;install cluster design&lt;/font&gt;&lt;/font&gt;" style="text;html=1;align=center;verticalAlign=middle;resizable=0;points=[];autosize=1;" parent="1" vertex="1"><mxGeometry x="10" y="20" width="180" height="20" as="geometry"/></mxCell><mxCell id="uiA_Pju4g9e8UXNmcgrw-3" value="Actor" style="shape=umlActor;verticalLabelPosition=bottom;verticalAlign=top;html=1;outlineConnect=0;" parent="1" vertex="1"><mxGeometry x="50" y="160" width="30" height="60" as="geometry"/></mxCell><mxCell id="uiA_Pju4g9e8UXNmcgrw-4" value="api" style="rounded=0;whiteSpace=wrap;html=1;" parent="1" vertex="1"><mxGeometry x="160" y="80" width="120" height="60" as="geometry"/></mxCell><mxCell id="uiA_Pju4g9e8UXNmcgrw-23" value="" style="edgeStyle=orthogonalEdgeStyle;rounded=0;orthogonalLoop=1;jettySize=auto;html=1;" parent="1" source="uiA_Pju4g9e8UXNmcgrw-5" edge="1"><mxGeometry relative="1" as="geometry"><mxPoint x="520" y="320" as="targetPoint"/></mxGeometry></mxCell><mxCell id="uiA_Pju4g9e8UXNmcgrw-5" value="register job" style="rounded=0;whiteSpace=wrap;html=1;" parent="1" vertex="1"><mxGeometry x="330" y="310" width="100" height="20" as="geometry"/></mxCell><mxCell id="uiA_Pju4g9e8UXNmcgrw-10" value="work pool" style="rounded=0;whiteSpace=wrap;html=1;" parent="1" vertex="1"><mxGeometry x="460" y="80" width="120" height="60" as="geometry"/></mxCell><mxCell id="uiA_Pju4g9e8UXNmcgrw-11" value="" style="endArrow=none;html=1;entryX=0.5;entryY=1;entryDx=0;entryDy=0;" parent="1" target="uiA_Pju4g9e8UXNmcgrw-10" edge="1"><mxGeometry width="50" height="50" relative="1" as="geometry"><mxPoint x="520" y="440" as="sourcePoint"/><mxPoint x="610" y="390" as="targetPoint"/><Array as="points"><mxPoint x="520" y="300"/></Array></mxGeometry></mxCell><mxCell id="uiA_Pju4g9e8UXNmcgrw-13" value="enque" style="text;html=1;align=center;verticalAlign=middle;resizable=0;points=[];autosize=1;" parent="1" vertex="1"><mxGeometry x="440" y="290" width="50" height="20" as="geometry"/></mxCell><mxCell id="uiA_Pju4g9e8UXNmcgrw-16" value="" style="endArrow=none;html=1;entryX=0.5;entryY=1;entryDx=0;entryDy=0;" parent="1" target="uiA_Pju4g9e8UXNmcgrw-4" edge="1"><mxGeometry width="50" height="50" relative="1" as="geometry"><mxPoint x="220" y="690" as="sourcePoint"/><mxPoint x="610" y="390" as="targetPoint"/></mxGeometry></mxCell><mxCell id="uiA_Pju4g9e8UXNmcgrw-17" value="" style="endArrow=classic;html=1;" parent="1" edge="1"><mxGeometry width="50" height="50" relative="1" as="geometry"><mxPoint x="100" y="200" as="sourcePoint"/><mxPoint x="220" y="200" as="targetPoint"/></mxGeometry></mxCell><mxCell id="uiA_Pju4g9e8UXNmcgrw-18" value="" style="html=1;points=[];perimeter=orthogonalPerimeter;" parent="1" vertex="1"><mxGeometry x="220" y="240" width="10" height="40" as="geometry"/></mxCell><mxCell id="uiA_Pju4g9e8UXNmcgrw-19" value="create job" style="edgeStyle=orthogonalEdgeStyle;html=1;align=left;spacingLeft=2;endArrow=block;rounded=0;entryX=1;entryY=0;" parent="1" target="uiA_Pju4g9e8UXNmcgrw-18" edge="1"><mxGeometry relative="1" as="geometry"><mxPoint x="225" y="220" as="sourcePoint"/><Array as="points"><mxPoint x="250" y="220"/></Array></mxGeometry></mxCell><mxCell id="uiA_Pju4g9e8UXNmcgrw-21" value="" style="html=1;verticalAlign=bottom;endArrow=block;entryX=0;entryY=0.5;entryDx=0;entryDy=0;" parent="1" target="uiA_Pju4g9e8UXNmcgrw-5" edge="1"><mxGeometry width="80" relative="1" as="geometry"><mxPoint x="220" y="320" as="sourcePoint"/><mxPoint x="630" y="410" as="targetPoint"/></mxGeometry></mxCell><mxCell id="uiA_Pju4g9e8UXNmcgrw-24" value="worker" style="shape=umlLifeline;perimeter=lifelinePerimeter;whiteSpace=wrap;html=1;container=1;collapsible=0;recursiveResize=0;outlineConnect=0;size=60;" parent="1" vertex="1"><mxGeometry x="630" y="80" width="100" height="600" as="geometry"/></mxCell><mxCell id="uiA_Pju4g9e8UXNmcgrw-30" value="pull work" style="html=1;verticalAlign=bottom;endArrow=open;dashed=1;endSize=8;" parent="1" edge="1"><mxGeometry relative="1" as="geometry"><mxPoint x="679.5" y="200" as="sourcePoint"/><mxPoint x="520" y="200" as="targetPoint"/></mxGeometry></mxCell><mxCell id="uiA_Pju4g9e8UXNmcgrw-32" value="" style="html=1;points=[];perimeter=orthogonalPerimeter;" parent="1" vertex="1"><mxGeometry x="680" y="250" width="10" height="40" as="geometry"/></mxCell><mxCell id="uiA_Pju4g9e8UXNmcgrw-33" value="mark work&lt;br&gt;handle work&lt;br&gt;remove work" style="edgeStyle=orthogonalEdgeStyle;html=1;align=left;spacingLeft=2;endArrow=block;rounded=0;entryX=1;entryY=0;" parent="1" target="uiA_Pju4g9e8UXNmcgrw-32" edge="1"><mxGeometry relative="1" as="geometry"><mxPoint x="685" y="230" as="sourcePoint"/><Array as="points"><mxPoint x="710" y="230"/></Array></mxGeometry></mxCell><mxCell id="uiA_Pju4g9e8UXNmcgrw-34" value="instll" style="text;html=1;align=center;verticalAlign=middle;resizable=0;points=[];autosize=1;" parent="1" vertex="1"><mxGeometry x="140" y="180" width="40" height="20" as="geometry"/></mxCell><mxCell id="uiA_Pju4g9e8UXNmcgrw-36" value="install response" style="text;html=1;align=center;verticalAlign=middle;resizable=0;points=[];autosize=1;" parent="1" vertex="1"><mxGeometry x="120" y="390" width="100" height="20" as="geometry"/></mxCell><mxCell id="uiA_Pju4g9e8UXNmcgrw-37" value="" style="html=1;verticalAlign=bottom;endArrow=open;dashed=1;endSize=8;" parent="1" edge="1"><mxGeometry relative="1" as="geometry"><mxPoint x="220" y="420" as="sourcePoint"/><mxPoint x="100" y="420" as="targetPoint"/></mxGeometry></mxCell><mxCell id="uiA_Pju4g9e8UXNmcgrw-38" value="return" style="html=1;verticalAlign=bottom;endArrow=open;dashed=1;endSize=8;" parent="1" edge="1"><mxGeometry relative="1" as="geometry"><mxPoint x="520" y="360" as="sourcePoint"/><mxPoint x="220" y="360" as="targetPoint"/></mxGeometry></mxCell><mxCell id="uiA_Pju4g9e8UXNmcgrw-39" value="return" style="html=1;verticalAlign=bottom;endArrow=open;dashed=1;endSize=8;" parent="1" edge="1"><mxGeometry relative="1" as="geometry"><mxPoint x="220" y="640" as="sourcePoint"/><mxPoint x="100" y="640" as="targetPoint"/></mxGeometry></mxCell><mxCell id="uiA_Pju4g9e8UXNmcgrw-40" value="query process of install" style="endArrow=open;endSize=12;dashed=1;html=1;" parent="1" edge="1"><mxGeometry x="-0.0909" y="20" width="160" relative="1" as="geometry"><mxPoint x="110" y="530" as="sourcePoint"/><mxPoint x="220" y="530" as="targetPoint"/><mxPoint as="offset"/></mxGeometry></mxCell><mxCell id="uiA_Pju4g9e8UXNmcgrw-41" value="query work log" style="endArrow=open;endSize=12;dashed=1;html=1;" parent="1" target="uiA_Pju4g9e8UXNmcgrw-24" edge="1"><mxGeometry width="160" relative="1" as="geometry"><mxPoint x="220" y="560" as="sourcePoint"/><mxPoint x="670" y="550" as="targetPoint"/></mxGeometry></mxCell><mxCell id="uiA_Pju4g9e8UXNmcgrw-43" value="return" style="html=1;verticalAlign=bottom;endArrow=open;dashed=1;endSize=8;" parent="1" source="uiA_Pju4g9e8UXNmcgrw-24" edge="1"><mxGeometry relative="1" as="geometry"><mxPoint x="630" y="410" as="sourcePoint"/><mxPoint x="220" y="620" as="targetPoint"/><Array as="points"><mxPoint x="440" y="620"/></Array></mxGeometry></mxCell><mxCell id="2" value="Q1: 查询实时日志？" style="text;html=1;align=center;verticalAlign=middle;resizable=0;points=[];autosize=1;strokeColor=none;" vertex="1" parent="1"><mxGeometry x="25" y="730" width="120" height="20" as="geometry"/></mxCell><mxCell id="4" value="Actor" style="shape=umlActor;verticalLabelPosition=bottom;verticalAlign=top;html=1;outlineConnect=0;" vertex="1" parent="1"><mxGeometry x="50" y="500" width="30" height="60" as="geometry"/></mxCell></root></mxGraphModel></diagram></mxfile>